<mxfile host="app.diagrams.net" modified="2023-05-11T04:04:05.491Z" agent="Mozilla/5.0 (Windows NT 10.0; Win64; x64) AppleWebKit/537.36 (KHTML, like Gecko) Chrome/113.0.0.0 Safari/537.36" version="21.2.9" etag="l9bSesXZ4iJnUjHsMbrF" type="github">
  <diagram name="Page-1" id="3nV38mSNL-lvkJdHqZnk">
    <mxGraphModel>
      <root>
        <mxCell id="0" />
        <mxCell id="1" parent="0" />
      </root>
    </mxGraphModel>
  </diagram>
</mxfile>
